P2
100 100
255
0 0 0 0 0 0 0 0 0 0 0 0 0 0 0 0 0 0 0 0 0 0 0 0 0 0 0 0 0 0 0 0 0 0 0 0 0 0 0 0 0 0 0 0 0 0 0 0 0 0 0 0 0 0 0 0 0 0 0 0 0 0 0 0 0 0 0 0 0 0 0 0 0 0 0 0 0 0 0 0 0 0 0 0 0 0 0 0 0 0 0 0 0 0 0 0 0 0 0 0 0 0 0 0 0 0 0 0 0 0 1 1 1 1 1 1 1 1 1 1 2 2 2 2 2 2 2 2 2 2 3 3 3 3 3 3 3 3 3 3 4 4 4 4 4 4 4 4 4 4 5 5 5 5 5 5 5 5 5 5 6 6 6 6 6 6 6 6 6 6 7 7 7 7 7 7 7 7 7 7 8 8 8 8 8 8 8 8 8 8 9 9 9 9 9 9 9 9 9 9 0 0 0 0 0 1 1 1 1 1 2 3 3 3 3 4 4 4 4 4 5 6 6 6 6 7 7 7 7 7 8 9 9 9 9 10 10 10 10 10 11 12 12 12 12 13 13 13 13 13 14 15 15 15 15 16 16 16 16 16 17 18 18 18 18 19 19 19 19 19 20 21 21 21 21 22 22 22 22 22 23 24 24 24 24 25 25 25 25 25 26 27 27 27 27 28 28 28 28 28 0 0 0 0 1 1 2 3 3 3 4 5 6 6 7 7 8 9 9 9 10 11 12 12 13 13 14 15 15 15 16 17 18 18 19 19 20 21 21 21 22 23 24 24 25 25 26 27 27 27 28 29 30 30 31 31 32 33 33 33 34 35 36 36 37 37 38 39 39 39 40 41 42 42 43 43 44 45 45 45 46 47 48 48 49 49 50 51 51 51 52 53 54 54 55 55 56 57 57 57 0 0 0 1 1 3 3 4 6 6 7 8 9 11 11 13 13 14 16 16 17 18 19 21 21 23 23 24 26 26 27 28 29 31 31 33 33 34 36 36 37 38 39 41 41 43 43 44 46 46 47 48 49 51 51 53 53 54 56 56 57 58 59 61 61 63 63 64 66 66 67 68 69 71 71 73 73 74 76 76 77 78 79 81 81 83 83 84 86 86 87 88 89 91 91 93 93 94 96 96 0 0 1 1 3 3 6 6 8 10 11 12 14 15 18 18 21 21 23 25 26 27 29 30 33 33 36 36 38 40 41 42 44 45 48 48 51 51 53 55 56 57 59 60 63 63 66 66 68 70 71 72 74 75 78 78 81 81 83 85 86 87 89 90 93 93 96 96 98 100 101 102 104 105 108 108 111 111 113 115 116 117 119 120 123 123 126 126 128 130 131 132 134 135 138 138 141 141 143 145 0 0 1 2 3 6 6 10 10 13 16 17 19 21 23 27 27 31 31 34 37 38 40 42 44 48 48 52 52 55 58 59 61 63 65 69 69 73 73 76 79 80 82 84 86 90 90 94 94 97 100 101 103 105 107 111 111 115 115 118 121 122 124 126 128 132 132 136 136 139 142 143 145 147 149 153 153 157 157 160 163 164 166 168 170 174 174 178 178 181 184 185 187 189 191 195 195 199 199 202 0 0 1 3 4 6 10 10 15 16 20 23 25 28 30 33 38 38 43 44 48 51 53 56 58 61 66 66 71 72 76 79 81 84 86 89 94 94 99 100 104 107 109 112 114 117 122 122 127 128 132 135 137 140 142 145 150 150 155 156 160 163 165 168 170 173 178 178 183 184 188 191 193 196 198 201 206 206 211 212 216 219 221 224 226 229 234 234 239 240 244 247 249 252 254 2 7 7 12 13 0 0 1 3 6 8 10 15 16 22 24 28 32 35 39 42 45 51 52 58 60 64 68 71 75 78 81 87 88 94 96 100 104 107 111 114 117 123 124 130 132 136 140 143 147 150 153 159 160 166 168 172 176 179 183 186 189 195 196 202 204 208 212 215 219 222 225 231 232 238 240 244 248 251 0 3 6 12 13 19 21 25 29 32 36 39 42 48 49 55 57 61 65 68 72 75 78 84 85 91 0 0 1 3 6 10 13 16 22 24 31 33 38 43 47 52 56 60 67 69 76 78 83 88 92 97 101 105 112 114 121 123 128 133 137 142 146 150 157 159 166 168 173 178 182 187 191 195 202 204 211 213 218 223 227 232 236 240 247 249 1 3 8 13 17 22 26 30 37 39 46 48 53 58 62 67 71 75 82 84 91 93 98 103 107 112 116 120 127 129 136 138 143 148 152 157 161 165 172 174 0 1 2 4 7 11 16 20 24 31 34 42 45 51 57 62 68 73 78 86 89 97 100 106 112 117 123 128 133 141 144 152 155 161 167 172 178 183 188 196 199 207 210 216 222 227 233 238 243 251 254 7 10 16 22 27 33 38 43 51 54 62 65 71 77 82 88 93 98 106 109 117 120 126 132 137 143 148 153 161 164 172 175 181 187 192 198 203 208 216 219 227 230 236 242 247 253 3 8 16 0 1 3 5 8 12 17 23 28 33 42 46 55 59 66 73 79 86 92 98 108 112 121 125 132 139 145 152 158 164 174 178 187 191 198 205 211 218 224 230 240 244 253 2 9 16 22 29 35 41 51 55 64 68 75 82 88 95 101 107 117 121 130 134 141 148 154 161 167 173 183 187 196 200 207 214 220 227 233 239 249 253 7 11 18 25 31 38 44 50 60 64 73 77 84 91 97 104 110 116 0 1 3 6 9 14 19 25 32 38 45 55 60 70 75 84 92 99 107 114 122 133 138 148 153 162 170 177 185 192 200 211 216 226 231 240 248 0 8 15 23 34 39 49 54 63 71 78 86 93 101 112 117 127 132 141 149 156 164 171 179 190 195 205 210 219 227 234 242 249 2 13 18 28 33 42 50 57 65 72 80 91 96 106 111 120 128 135 143 150 158 169 174 184 189 198 206 213 221 228 0 1 3 6 11 15 21 28 35 43 51 59 70 76 88 94 104 114 122 131 140 149 161 167 179 185 195 205 213 222 231 240 252 3 15 21 31 41 49 58 67 76 88 94 106 112 122 132 140 149 158 167 179 185 197 203 213 223 231 240 249 3 15 21 33 39 49 59 67 76 85 94 106 112 124 130 140 150 158 167 176 185 197 203 215 221 231 241 249 3 12 21 33 39 51 57 67 77 85 94 0 1 3 7 11 18 23 30 39 47 57 66 75 88 95 109 116 127 139 148 159 169 179 193 200 214 221 232 244 253 9 19 29 43 50 64 71 82 94 103 114 124 134 148 155 169 176 187 199 208 219 229 239 253 5 19 26 37 49 58 69 79 89 103 110 124 131 142 154 163 174 184 194 208 215 229 236 247 4 13 24 34 44 58 65 79 86 97 109 118 129 139 149 163 170 184 191 202 214 223 0 1 4 7 13 18 27 33 42 52 62 73 84 94 109 117 133 141 154 167 178 190 202 213 229 237 253 6 19 32 43 55 67 78 94 102 118 126 139 152 163 175 187 198 214 222 238 246 4 17 28 40 52 63 79 87 103 111 124 137 148 160 172 183 199 207 223 231 244 2 13 25 37 48 64 72 88 96 109 122 133 145 157 168 184 192 208 216 229 242 253 10 22 33 49 57 73 81 94 107 0 1 4 8 13 21 27 38 45 56 68 79 92 104 116 133 142 160 169 184 199 211 225 238 251 14 23 41 50 65 80 92 106 119 132 150 159 177 186 201 216 228 242 0 13 31 40 58 67 82 97 109 123 136 149 167 176 194 203 218 233 245 4 17 30 48 57 75 84 99 114 126 140 153 166 184 193 211 220 235 250 7 21 34 47 65 74 92 101 116 131 143 157 170 183 201 210 228 237 252 0 1 4 9 14 21 31 38 51 60 73 86 99 114 127 141 160 170 190 201 218 234 248 9 23 38 58 68 88 99 116 132 146 162 176 191 211 221 241 252 14 30 44 60 74 89 109 119 139 150 167 183 197 213 227 242 7 17 37 48 65 81 95 111 125 140 160 170 190 201 218 234 248 9 23 38 58 68 88 99 116 132 146 162 176 191 211 221 241 252 14 30 44 60 74 89 109 119 139 150 0 1 4 9 16 23 31 43 52 67 78 92 107 122 139 154 169 190 202 224 237 0 18 34 52 68 84 106 118 140 153 171 189 205 223 239 0 22 34 56 69 87 105 121 139 155 171 193 205 227 240 3 21 37 55 71 87 109 121 143 156 174 192 208 226 242 3 25 37 59 72 90 108 124 142 158 174 196 208 230 243 6 24 40 58 74 90 112 124 146 159 177 195 211 229 245 6 28 40 62 0 1 4 9 16 25 34 44 58 69 86 98 114 131 148 167 184 201 224 238 7 21 41 61 79 99 117 135 159 173 197 211 231 251 14 34 52 70 94 108 132 146 166 186 204 224 242 5 29 43 67 81 101 121 139 159 177 195 219 233 2 16 36 56 74 94 112 130 154 168 192 206 226 246 9 29 47 65 89 103 127 141 161 181 199 219 237 0 24 38 62 76 96 116 134 154 172 190 214 228 0 2 5 10 17 26 37 48 60 76 89 108 122 140 159 178 199 218 237 7 23 49 65 87 109 129 151 171 191 217 233 4 20 42 64 84 106 126 146 172 188 214 230 252 19 39 61 81 101 127 143 169 185 207 229 249 16 36 56 82 98 124 140 162 184 204 226 246 11 37 53 79 95 117 139 159 181 201 221 247 8 34 50 72 94 114 136 156 176 202 218 244 5 27 49 69 91 111 131 157 0 2 6 11 18 27 38 51 64 78 97 112 133 149 169 190 211 234 0 21 49 67 95 113 137 161 183 207 229 251 25 43 71 89 113 137 159 183 205 227 1 19 47 65 89 113 135 159 181 203 232 250 23 41 65 89 111 135 157 179 208 226 254 17 41 65 87 111 133 155 184 202 230 248 17 41 63 87 109 131 160 178 206 224 248 17 39 63 85 107 136 154 182 200 224 248 15 39 61 83 0 2 6 12 19 29 40 53 68 83 100 121 138 161 179 202 225 248 18 41 65 95 115 145 165 192 218 242 13 37 62 93 113 143 163 190 216 240 11 35 60 91 111 141 161 188 214 238 9 33 58 89 109 139 159 186 212 236 7 31 56 87 107 137 157 184 210 234 5 29 54 85 105 135 155 182 208 232 3 27 52 83 103 133 153 180 206 230 1 25 50 81 101 131 151 178 204 228 254 23 0 2 6 12 21 30 42 56 71 88 106 125 148 167 193 213 238 9 34 61 87 113 145 167 200 222 251 25 51 79 106 133 166 188 221 243 17 46 72 100 127 154 187 209 242 9 38 67 93 121 148 175 208 230 8 30 59 88 114 142 169 196 229 251 29 51 80 109 135 163 190 217 250 17 50 72 101 130 156 184 211 238 16 38 71 93 122 151 177 205 232 4 37 59 92 114 143 172 198 226 0 2 6 13 21 33 44 58 75 92 112 132 153 179 200 229 251 23 52 79 109 137 165 200 224 5 29 60 92 120 151 180 209 245 14 50 74 105 137 165 196 225 254 35 59 95 119 150 182 210 241 15 44 80 104 140 164 195 227 0 31 60 89 125 149 185 209 240 17 45 76 105 134 170 194 230 254 30 62 90 121 150 179 215 239 20 44 75 107 135 166 195 224 5 29 65 89 120 152 180 0 2 7 13 23 33 48 61 78 97 117 139 162 185 214 237 14 38 68 99 129 161 192 222 5 31 70 96 130 164 195 228 5 36 75 101 140 166 200 234 10 43 75 106 145 171 210 236 15 49 80 113 145 176 215 241 25 51 85 119 150 183 215 246 30 56 95 121 155 189 220 253 30 61 100 126 165 191 225 4 35 68 100 131 170 196 235 6 40 74 105 138 170 201 240 11 50 76 110 144 0 2 7 14 23 36 48 66 81 101 123 145 170 195 221 253 23 58 84 117 151 183 218 251 29 70 98 140 168 205 242 20 56 90 124 166 194 236 9 46 83 116 152 186 220 7 35 77 105 142 179 212 248 27 61 103 131 173 201 238 20 53 89 123 157 199 227 14 42 79 116 149 185 219 253 40 68 110 138 175 212 245 26 60 94 136 164 206 234 16 53 86 122 156 190 232 5 47 75 112 0 2 7 15 24 36 52 66 87 105 128 152 177 205 232 6 41 68 106 135 171 207 242 25 60 96 140 170 215 246 31 70 106 145 181 218 8 38 83 114 154 193 229 13 49 86 131 161 206 237 22 61 97 136 172 209 254 29 74 105 145 184 220 4 40 77 122 152 197 228 13 52 88 127 163 200 245 20 65 96 136 175 211 250 31 68 113 143 188 219 4 43 79 118 154 191 236 11 56 87 0 2 7 15 26 38 52 71 88 112 133 158 185 213 244 19 50 88 118 159 191 229 13 51 92 130 168 215 248 41 75 117 159 198 240 24 63 111 144 192 226 13 55 94 136 175 214 7 40 88 122 164 206 245 32 71 110 158 191 239 18 60 102 141 183 222 6 54 87 135 169 211 253 37 79 118 157 205 238 31 65 107 149 188 230 14 53 101 134 182 216 3 45 84 126 165 204 252 30 78 0 2 7 15 26 40 55 72 94 114 141 164 192 222 253 32 65 99 140 173 217 251 37 79 120 164 205 246 41 77 128 164 209 254 41 86 128 170 221 2 53 89 134 179 221 11 53 95 146 182 233 14 59 104 146 191 233 20 71 107 158 194 239 29 71 116 158 200 251 32 83 119 164 209 251 41 83 125 176 212 8 44 89 134 176 221 8 50 101 137 188 224 14 59 101 146 188 230 26 62 0 3 8 16 27 41 58 76 96 121 144 174 200 231 9 43 80 116 153 197 233 25 62 106 151 195 242 31 75 128 167 221 5 53 101 146 194 239 29 83 122 176 215 8 56 101 149 194 239 38 77 131 170 218 11 56 104 149 194 248 32 86 125 173 221 11 59 104 149 203 242 41 80 128 176 221 14 59 104 158 197 251 35 83 131 176 224 14 59 113 152 206 245 38 86 131 179 224 14 68 0 3 9 17 28 42 59 79 100 123 152 178 211 240 19 55 92 132 171 211 4 43 93 133 180 228 20 70 117 164 221 8 65 107 158 209 2 53 101 149 207 249 51 93 144 195 243 39 87 135 193 235 37 79 130 181 229 25 73 121 179 221 23 65 116 167 215 11 59 107 165 207 9 51 102 153 201 252 45 93 151 193 250 37 88 139 187 238 31 79 137 179 236 23 74 125 173 224 17 65 0 3 9 18 29 44 61 81 104 128 155 187 216 252 29 67 106 146 189 231 20 71 113 166 209 5 56 106 159 209 5 65 110 170 215 15 69 120 174 225 22 83 128 188 233 33 87 138 192 243 40 101 146 206 251 51 105 156 210 6 58 119 164 224 14 69 123 174 228 24 76 137 182 242 32 87 141 192 246 42 94 155 200 5 50 105 159 210 9 60 112 173 218 23 68 123 177 228 27 78 0 3 9 18 31 45 63 84 107 133 161 191 226 3 43 78 119 162 205 251 42 89 143 188 245 36 90 145 198 254 53 107 170 218 27 75 133 191 245 47 102 157 221 14 78 126 184 242 41 98 153 208 17 65 129 177 235 38 92 149 204 4 68 116 180 228 31 89 143 200 0 55 119 167 231 24 82 140 194 251 51 106 170 218 27 75 133 191 245 47 102 157 221 14 78 126 184 242 41 98 0 3 9 19 31 48 65 86 111 137 167 198 231 15 50 94 132 176 223 14 64 113 163 221 14 75 124 181 240 41 101 158 215 27 78 146 197 3 65 122 183 241 44 112 163 231 27 88 150 207 13 71 129 197 248 61 112 173 235 37 98 156 214 27 78 146 197 3 65 122 183 241 44 112 163 231 27 88 150 207 13 71 129 197 248 61 112 173 235 37 98 156 214 27 78 146 197 3 65 122 0 3 10 19 33 48 69 89 114 142 172 205 240 21 64 102 150 191 239 34 84 137 190 243 50 101 166 218 24 86 146 209 15 75 146 200 17 71 136 201 7 71 133 194 11 65 137 191 1 66 127 191 253 59 131 185 2 56 121 186 247 56 118 179 251 50 122 176 241 51 112 176 238 44 116 170 242 41 106 171 232 41 103 164 236 35 107 161 226 36 97 161 223 29 101 155 227 26 91 156 0 3 10 20 33 51 69 94 117 146 178 211 248 31 71 118 159 211 0 52 106 159 216 17 74 140 194 8 63 128 194 2 69 133 197 17 74 150 207 21 90 154 222 32 97 173 230 51 108 177 246 55 123 188 253 74 131 207 9 78 147 211 24 89 154 230 32 108 165 234 48 112 180 245 55 131 188 9 66 135 204 13 81 146 211 32 89 165 222 36 105 169 237 47 112 188 245 66 123 192 0 3 10 21 34 51 73 94 123 150 183 218 0 41 82 126 177 221 22 70 126 183 240 46 105 166 236 38 111 170 239 53 120 191 3 71 150 210 35 96 169 241 54 126 194 8 88 148 228 34 107 179 247 64 132 201 26 86 166 227 45 117 185 2 70 139 219 24 104 165 238 55 123 195 8 77 157 217 42 103 176 248 61 133 201 15 95 155 235 41 114 186 254 71 139 208 33 93 173 234 0 3 10 21 36 53 73 99 124 157 188 224 8 49 94 139 186 241 34 94 146 205 11 72 137 200 9 83 144 221 29 101 174 245 65 136 207 35 99 183 248 69 145 217 38 110 182 11 75 159 224 45 121 193 14 86 158 242 51 135 200 21 97 169 245 62 134 218 27 111 176 252 73 145 221 38 110 194 3 87 152 228 49 121 197 14 86 170 234 63 128 204 25 97 173 245 62 146 210 39 0 3 10 21 36 55 76 100 130 159 196 230 15 58 103 152 201 252 56 108 172 227 35 100 165 234 46 114 192 2 83 149 225 47 122 201 21 96 183 251 84 152 232 57 133 213 34 110 198 11 99 167 247 72 148 228 49 125 213 26 114 182 7 87 163 243 64 140 228 41 129 197 22 102 178 3 79 155 243 56 144 212 37 117 193 18 94 170 3 71 159 227 52 132 208 33 109 185 18 86 0 4 11 22 37 56 79 104 132 166 199 240 23 67 114 163 216 14 69 132 188 1 60 127 196 10 83 154 226 53 122 207 22 102 183 7 90 169 248 84 156 248 65 149 233 58 142 222 47 139 211 48 120 204 33 113 197 22 102 194 11 103 175 4 88 168 252 77 157 249 66 158 230 59 143 223 52 132 212 49 121 213 30 114 198 23 107 187 12 104 176 13 85 169 253 78 162 242 67 159 0 4 12 23 38 57 80 107 136 168 207 244 34 76 124 175 228 30 87 146 214 19 91 154 225 43 116 193 13 89 176 249 83 157 241 71 154 241 69 152 248 69 165 241 74 162 246 79 163 247 89 165 6 82 170 3 87 175 4 88 185 6 102 178 11 99 183 16 100 184 26 102 198 19 107 195 24 112 196 25 122 198 39 115 203 36 120 208 37 121 218 39 135 211 44 132 216 49 133 217 0 4 12 24 39 59 82 109 140 173 210 253 39 88 134 187 242 44 105 166 230 47 111 187 254 75 152 229 55 134 215 51 128 221 44 133 222 54 145 232 65 165 245 90 170 8 100 188 25 113 202 48 128 228 53 146 238 71 163 251 85 186 11 111 191 29 121 209 46 134 223 69 149 249 74 167 4 92 184 17 106 207 32 132 212 50 142 230 67 155 244 90 170 15 95 188 25 113 205 38 0 4 12 24 41 60 84 112 143 178 216 2 49 94 148 198 0 60 121 186 252 65 141 209 35 106 186 13 94 179 8 93 188 14 112 194 32 126 217 57 149 241 90 174 24 108 205 47 139 235 73 166 16 100 205 34 131 228 65 161 254 92 197 26 131 215 57 154 246 87 180 18 123 207 57 141 238 80 172 13 106 199 49 133 238 67 164 6 98 194 32 125 230 59 164 248 90 187 24 120 0 4 12 25 41 63 86 114 147 182 222 9 54 106 155 214 13 74 139 204 19 89 161 242 59 145 220 49 136 221 56 144 233 78 163 11 97 194 38 133 233 74 170 24 112 222 55 156 3 99 200 42 139 249 82 192 25 126 228 69 170 12 109 219 52 162 250 96 198 39 140 237 79 189 22 132 220 66 168 9 110 207 49 159 247 102 190 36 138 234 80 177 19 129 217 72 160 6 108 204 0 4 13 25 43 63 90 117 150 187 227 16 63 112 169 222 31 89 155 224 39 113 188 9 95 171 7 86 175 11 101 195 33 126 231 65 173 8 110 213 58 162 8 108 222 59 174 11 117 223 69 174 21 122 237 74 189 26 132 238 84 189 36 137 252 89 204 41 147 253 99 204 51 152 12 104 219 56 162 13 114 219 66 167 27 119 234 71 177 28 129 234 81 182 42 134 249 86 192 43 0 4 13 26 43 66 90 122 153 191 233 22 71 122 176 238 40 109 171 242 61 135 214 38 119 210 35 131 214 53 149 243 87 184 27 137 230 88 182 34 142 246 100 205 55 174 15 135 231 87 198 48 158 9 115 235 76 196 37 148 4 109 219 70 176 41 137 2 98 209 65 170 25 131 237 102 198 63 159 15 126 231 86 192 43 163 4 124 220 76 187 37 147 253 104 224 65 185 26 137 0 4 13 27 44 66 94 122 159 195 238 29 78 132 187 246 58 119 193 5 81 159 238 67 150 236 77 161 7 95 194 39 138 242 88 191 51 148 11 110 222 79 188 47 156 11 135 235 105 206 67 182 37 152 7 118 243 88 213 59 175 35 145 5 115 226 96 196 66 167 28 143 253 113 223 79 204 49 174 20 136 251 106 221 76 187 57 157 27 128 244 104 214 74 184 40 165 10 135 236 0 4 13 27 46 68 94 127 160 202 243 35 86 140 199 4 67 139 205 29 101 181 9 93 182 15 105 206 40 146 239 87 192 41 150 1 108 228 75 198 47 163 25 139 3 117 231 105 210 85 191 56 176 36 156 16 131 6 111 241 92 212 77 192 57 172 32 162 12 142 248 113 233 93 213 73 188 63 168 43 149 14 134 249 114 229 89 219 69 199 50 170 35 150 15 130 245 120 225 100 0 4 13 27 46 70 97 128 166 204 251 41 93 149 208 17 82 150 227 43 127 203 33 121 210 49 142 237 88 182 38 135 243 98 207 66 177 34 159 11 139 247 113 235 99 223 87 206 85 195 75 185 55 180 45 170 35 155 35 145 25 135 5 130 250 120 240 105 240 95 230 85 210 80 200 70 190 55 190 45 180 35 160 30 150 20 140 5 140 250 130 240 110 235 100 225 90 210 90 200 0 5 14 28 47 71 100 132 168 211 254 51 101 158 219 28 97 167 240 67 143 232 58 148 241 80 179 22 122 233 77 193 40 153 13 127 246 107 224 99 211 89 202 73 200 69 198 67 191 75 190 75 190 65 195 65 195 65 190 75 190 75 190 65 195 65 195 65 190 75 190 75 190 65 195 65 195 65 190 75 190 75 190 65 195 65 195 65 190 75 190 75 190 65 195 65 195 65 190 75 0 5 15 29 48 72 101 135 172 213 7 55 112 167 229 40 109 183 3 81 169 250 89 175 15 113 212 61 164 14 131 235 101 208 71 191 55 179 45 167 48 165 48 166 42 174 48 182 56 185 75 195 85 205 85 220 95 230 105 235 126 246 136 1 136 16 146 26 156 31 177 42 187 52 187 67 197 77 207 82 228 93 238 103 238 118 248 128 3 133 24 144 34 154 34 169 44 179 54 184 0 5 15 30 49 74 103 137 176 218 10 64 117 179 239 52 123 197 21 101 185 23 109 208 44 145 248 97 206 59 170 37 146 17 129 253 123 247 121 247 120 6 128 16 139 21 158 37 176 55 190 85 210 105 230 116 1 136 21 156 37 188 58 208 78 219 104 239 124 4 140 36 161 56 181 67 207 87 227 107 243 139 9 159 29 170 55 190 75 210 91 242 112 7 132 18 158 38 178 58 0 5 15 30 51 75 105 140 179 223 16 68 127 185 253 63 136 213 37 121 207 41 139 230 80 176 27 136 245 104 218 79 206 65 197 59 188 64 193 72 204 82 228 100 249 122 9 152 36 180 65 205 105 235 136 11 157 48 188 78 219 105 6 136 37 167 58 204 89 234 120 6 162 37 193 68 214 105 245 135 21 162 63 193 94 224 115 6 146 36 177 63 219 94 250 125 16 162 47 192 0 5 15 31 51 78 107 142 183 227 22 75 132 197 5 79 149 227 55 139 229 65 159 8 104 215 61 172 32 146 11 130 251 129 248 131 253 132 14 148 33 170 53 205 82 237 115 7 156 45 195 85 230 136 16 178 58 209 106 251 147 38 184 91 226 133 13 164 61 206 102 248 139 46 181 88 223 119 16 161 57 203 94 1 136 43 178 74 226 116 12 158 49 211 91 253 133 29 181 71 0 5 16 31 53 78 111 145 186 232 27 82 141 203 19 87 167 242 71 159 249 89 186 30 140 241 103 209 71 191 56 181 51 177 61 185 74 201 86 228 113 3 146 34 192 74 235 118 16 170 65 220 116 11 178 63 231 116 18 175 71 227 124 20 188 73 241 126 28 185 81 237 134 30 198 83 251 136 38 195 91 247 144 40 208 93 6 146 48 205 101 2 154 50 218 103 16 156 58 215 0 5 16 32 53 81 111 150 189 236 33 88 149 213 26 103 176 7 87 177 16 111 212 59 164 25 131 254 110 233 104 229 105 235 112 2 131 26 158 49 197 87 238 131 25 189 76 243 131 35 195 95 1 157 58 231 121 40 185 93 1 157 64 221 123 42 187 106 251 159 67 223 130 32 189 108 253 172 62 225 133 34 196 98 0 174 64 238 128 36 199 100 7 164 66 240 130 49 194 102 0 5 16 33 54 81 115 150 195 240 38 95 156 223 37 111 194 17 109 195 36 135 236 88 195 51 173 29 158 20 149 25 156 38 173 56 207 86 242 125 22 175 71 228 126 26 196 88 6 155 65 230 136 48 209 116 40 190 115 11 180 93 0 168 75 238 163 58 238 134 48 216 123 36 198 106 31 181 106 2 171 84 246 159 66 229 154 49 229 125 39 207 114 27 189 97 22 172 97 248 0 5 16 33 56 83 115 155 196 247 43 101 164 231 49 124 203 37 121 219 56 157 7 114 227 85 201 74 191 71 194 73 210 92 235 121 9 166 51 213 102 4 163 65 228 132 37 213 111 35 190 105 21 188 106 18 185 115 16 202 104 23 197 110 29 197 110 41 197 128 30 204 123 36 210 123 36 222 123 54 211 130 49 217 136 49 217 148 49 235 137 56 230 143 62 230 143 74 230 161 0 5 16 33 56 85 118 156 202 249 51 107 171 240 58 137 218 48 143 233 82 179 31 142 0 119 238 105 239 107 248 121 6 149 37 186 78 227 135 26 194 88 251 161 69 238 148 59 241 145 75 235 156 78 251 175 93 11 202 109 46 208 133 58 232 157 76 250 187 94 31 193 118 43 217 142 61 235 172 79 16 178 103 28 202 127 46 220 157 64 1 163 88 13 187 112 31 205 142 49 0 6 17 34 57 86 121 160 204 1 54 117 179 249 69 148 233 65 156 2 98 208 56 169 31 150 20 145 18 158 32 179 58 204 98 247 147 45 200 114 11 185 85 254 170 84 4 175 92 25 190 126 37 219 147 71 1 180 104 46 214 157 70 1 187 112 43 223 148 91 4 202 115 46 232 157 88 13 193 136 49 247 160 91 22 202 133 58 238 181 94 37 205 136 67 247 178 103 28 226 0 6 18 35 58 87 122 163 208 3 62 121 190 3 79 160 245 81 174 16 124 226 87 196 60 183 53 184 60 194 86 221 119 4 156 56 211 117 21 182 103 6 186 92 12 189 109 35 212 135 75 246 188 105 38 227 157 93 23 208 157 76 25 199 136 73 4 196 127 58 8 182 131 50 242 179 110 47 233 164 114 33 237 156 93 30 216 153 84 15 220 139 88 7 199 136 67 4 190 121 0 6 18 36 59 89 124 165 212 8 65 130 195 15 89 172 4 95 192 36 140 254 107 229 89 215 89 220 102 239 125 23 164 68 214 118 24 185 97 7 175 102 11 197 109 36 219 145 77 5 190 136 58 6 184 124 64 0 197 133 70 25 205 160 85 29 227 164 107 44 237 193 118 73 253 197 140 77 20 212 150 106 31 241 166 110 53 245 188 125 63 19 199 154 79 23 221 158 101 38 0 6 18 36 61 90 126 168 215 13 71 134 205 21 103 183 17 111 208 56 162 17 137 251 125 246 123 4 141 29 173 65 224 116 27 179 89 2 169 87 4 178 111 26 219 137 70 5 192 130 65 1 208 136 91 20 221 168 110 58 1 199 160 91 53 239 189 139 82 31 230 174 136 67 29 215 165 115 58 7 206 150 112 43 5 191 141 91 34 238 182 126 88 19 236 167 117 67 10 214 0 6 18 37 61 93 128 170 219 17 77 141 210 33 110 199 30 125 226 74 184 41 157 29 149 30 157 40 183 71 221 116 14 180 78 251 154 70 245 163 88 11 191 131 52 252 176 115 57 250 195 136 78 37 226 188 123 75 29 232 187 136 85 53 245 214 151 107 64 13 224 174 124 93 30 254 191 147 104 53 9 214 164 133 70 39 231 187 144 93 49 254 204 173 110 79 16 227 184 133 0 6 19 37 63 93 132 173 222 22 82 148 219 39 124 207 48 140 242 94 204 65 184 51 185 56 199 77 222 116 11 167 69 228 146 50 230 139 62 243 168 99 29 215 162 89 41 226 172 120 65 16 219 167 133 73 42 238 197 157 112 73 29 239 214 157 133 76 39 2 213 175 132 88 64 7 238 181 144 107 63 25 237 193 169 112 88 31 249 212 168 130 87 43 19 217 193 136 99 62 0 6 19 38 63 96 132 178 225 26 88 154 227 49 131 223 57 160 3 112 226 87 210 80 209 95 227 122 6 158 59 215 123 31 197 122 32 219 134 64 252 183 121 57 250 204 137 96 32 240 195 146 104 58 13 241 187 163 110 76 43 4 227 189 151 133 82 65 14 239 209 171 140 103 66 49 253 236 185 155 125 87 56 19 237 220 169 152 101 71 41 3 227 190 153 136 85 68 17 242 0 6 19 39 64 96 136 178 231 30 93 161 234 59 142 231 75 170 25 130 246 111 234 109 240 121 14 152 54 200 104 11 174 89 3 176 108 24 218 140 77 16 209 154 96 41 2 196 162 105 65 26 239 204 164 126 106 58 41 250 223 196 164 139 107 76 65 20 10 221 198 174 143 119 88 58 48 3 248 204 181 157 126 102 71 41 31 241 231 187 164 140 109 85 54 24 14 224 214 170 0 6 19 39 66 98 136 183 232 37 98 167 242 67 154 244 84 190 37 154 11 133 5 135 17 155 42 197 87 251 149 59 228 143 65 241 165 104 27 228 157 100 46 246 198 147 98 66 12 240 190 156 124 89 61 28 251 238 197 187 148 127 107 82 64 39 14 10 227 224 187 170 153 129 112 88 64 61 23 20 238 221 204 180 163 139 115 112 74 71 34 17 0 231 214 190 166 163 125 122 0 6 19 39 66 100 139 184 238 39 106 173 249 76 163 2 99 201 59 168 37 155 29 163 45 189 79 228 135 32 203 107 24 200 122 51 234 165 111 41 249 184 134 87 39 253 209 167 142 95 75 31 4 234 206 185 159 134 128 94 91 58 44 31 13 2 239 221 224 193 197 166 156 146 129 119 102 85 89 58 62 31 21 11 249 239 222 205 209 178 182 151 141 131 114 104 87 70 74 43 0 7 20 40 67 101 142 188 240 46 109 183 2 85 174 13 114 218 72 192 53 184 54 190 76 220 116 13 169 83 242 165 76 0 183 112 48 238 176 129 66 26 223 180 140 99 65 28 248 230 190 177 140 120 102 81 67 48 30 31 4 8 237 230 224 213 209 198 187 197 173 184 160 157 154 144 141 131 121 132 108 119 95 92 89 79 76 66 56 67 43 54 30 27 24 14 11 1 246 2 0 7 21 41 68 102 143 191 244 48 117 187 13 94 184 25 126 234 90 206 79 202 85 217 105 253 149 52 211 119 41 207 137 55 241 176 112 55 252 197 158 102 69 18 237 204 170 143 113 85 75 42 36 6 248 237 223 216 204 193 202 182 193 174 174 175 171 174 170 166 184 167 185 168 172 176 173 177 174 171 190 173 191 174 178 182 179 183 180 177 196 179 197 180 184 188 185 189 186 183 0 7 21 42 69 104 145 193 248 53 120 196 18 106 194 37 140 248 108 226 95 230 105 250 134 30 185 88 253 164 80 9 182 119 44 238 180 123 73 22 230 198 149 123 79 51 25 253 233 210 190 187 161 162 139 134 130 123 123 118 115 131 118 136 124 132 140 143 153 156 160 185 175 200 190 202 213 217 228 232 237 8 253 23 13 25 36 40 51 55 60 86 76 101 91 103 114 118 129 133 0 7 21 42 71 105 147 196 251 58 126 200 28 112 208 48 153 9 124 246 117 248 135 17 170 61 219 127 37 209 128 51 242 167 112 44 245 195 145 102 59 19 249 207 189 152 131 113 93 80 65 52 56 37 46 30 32 36 36 43 46 50 73 67 93 88 103 119 129 146 157 168 200 197 230 227 246 10 21 39 51 63 96 93 126 123 142 161 172 190 202 214 247 244 22 19 38 57 68 86 0 7 21 43 71 108 149 198 0 62 132 207 33 124 215 64 166 23 142 9 139 17 155 50 194 100 253 163 79 251 176 102 32 231 163 116 55 8 221 178 143 107 74 57 22 12 237 223 213 200 195 187 181 193 181 198 189 198 210 217 232 242 253 29 30 64 66 88 112 129 154 172 190 230 234 20 24 50 77 95 121 140 159 200 204 245 249 20 47 65 91 110 129 170 174 215 219 245 17 35 0 7 22 43 73 108 153 201 3 67 137 214 42 130 229 72 184 38 158 29 159 41 182 72 230 126 40 200 118 41 221 153 87 24 231 170 131 77 38 3 223 195 167 141 132 104 102 79 73 70 65 67 67 68 88 83 108 106 123 142 157 179 197 215 254 7 49 58 88 119 144 176 202 227 20 31 80 91 125 159 185 218 245 16 65 76 125 136 170 204 230 8 35 61 110 121 170 181 215 249 0 7 22 44 73 111 153 206 6 71 143 220 50 140 236 88 193 58 174 47 181 63 208 101 254 165 68 245 157 83 14 201 141 82 27 242 188 157 110 79 52 24 4 238 220 219 198 204 188 190 195 197 207 214 223 251 253 31 36 61 88 110 140 165 191 238 253 48 64 102 141 173 213 246 24 80 98 155 173 215 2 35 76 110 144 201 219 21 39 81 123 156 197 231 10 67 85 142 160 202 0 7 22 45 74 111 157 206 12 75 148 227 57 150 247 96 211 68 196 65 201 87 232 130 30 191 110 20 205 125 59 252 192 140 88 41 9 217 194 155 132 112 92 80 66 56 63 49 63 55 65 77 87 105 119 136 172 181 222 235 13 47 77 115 147 181 236 3 61 85 131 177 217 10 50 91 155 180 245 16 66 115 156 205 246 33 98 123 188 214 9 58 99 148 189 231 41 66 131 157 0 7 22 45 76 113 157 211 13 82 153 233 65 158 4 109 220 88 208 89 221 109 3 156 62 225 138 65 238 176 104 45 246 194 150 106 66 42 3 243 212 196 184 172 168 162 159 174 168 190 190 207 227 245 16 38 62 106 123 172 193 233 20 58 104 144 185 248 23 89 121 174 228 21 77 125 173 245 23 96 130 187 244 38 95 144 193 11 44 117 151 208 10 59 116 165 214 32 65 138 0 7 22 45 76 115 160 212 19 84 161 239 72 167 13 122 235 99 230 103 247 131 27 184 90 4 175 96 31 212 158 93 42 251 207 171 135 103 87 56 49 25 17 13 9 13 15 20 43 45 75 82 107 135 161 195 225 2 54 79 136 164 212 7 53 107 155 204 20 58 132 171 232 39 95 159 215 16 96 137 218 4 69 134 191 1 58 115 196 237 63 104 169 234 36 101 158 215 41 82 0 8 23 46 77 116 163 216 21 91 164 249 80 176 24 133 250 116 243 127 8 160 52 211 121 35 212 136 65 8 197 151 94 51 13 232 204 176 152 144 121 122 106 106 110 114 126 136 149 180 190 228 243 21 57 91 133 171 211 16 49 114 150 206 9 63 125 181 238 62 108 190 237 51 121 185 2 66 130 218 12 101 150 223 41 106 179 244 54 143 192 26 75 148 221 31 104 169 234 68 0 8 24 47 78 117 164 219 25 93 172 253 91 185 34 145 7 132 6 141 34 178 83 238 150 68 245 175 107 44 251 193 155 106 71 41 13 248 228 212 213 198 207 199 207 219 231 251 14 35 75 93 139 162 203 247 34 84 130 178 247 33 106 150 214 25 87 157 221 31 119 173 8 63 140 218 35 115 187 4 101 158 0 57 138 219 37 118 191 9 107 164 6 63 144 225 43 124 197 15 0 8 24 48 79 119 166 221 29 98 175 7 96 197 44 157 21 146 24 161 50 206 103 16 179 100 26 211 149 89 35 250 200 170 129 103 81 61 49 37 30 39 32 49 49 66 86 106 134 160 190 238 9 63 94 144 196 246 49 103 160 237 31 112 164 237 56 126 204 21 95 191 253 96 159 245 76 156 244 69 150 0 65 170 235 70 159 240 74 155 237 88 153 3 68 158 247 73 162 243 0 8 24 48 81 120 168 224 32 103 181 11 106 203 58 168 34 162 40 181 72 224 133 38 215 131 60 250 188 134 83 37 5 218 197 164 146 133 121 117 114 115 132 133 159 167 192 221 249 30 65 103 159 193 1 40 98 159 217 28 91 156 241 43 133 193 19 102 180 11 92 174 23 93 200 16 110 205 38 134 223 57 170 243 102 175 18 116 205 47 137 227 86 159 18 91 189 32 121 218 0 8 24 49 81 123 170 226 36 107 187 18 111 215 65 184 47 176 58 199 94 248 153 71 239 170 94 31 230 176 131 88 50 27 248 236 211 201 197 193 198 203 212 238 247 27 43 76 114 150 195 238 29 94 136 208 0 66 136 202 22 93 166 5 70 169 237 71 163 249 89 178 13 126 204 65 144 246 95 191 41 138 235 102 183 51 132 238 90 187 38 136 234 102 183 51 132 238 90 187 0 8 25 49 83 123 174 229 39 112 192 25 120 221 79 192 65 191 74 219 114 17 180 93 20 196 136 68 14 221 176 139 105 75 61 35 32 15 14 18 23 36 50 67 102 119 163 187 229 20 65 118 170 224 43 93 174 229 49 127 202 30 110 191 39 112 220 41 139 239 79 182 25 123 245 76 201 33 144 1 106 219 70 175 51 140 17 106 221 81 187 46 153 4 136 225 102 191 51 166 0 8 25 50 83 126 174 234 42 116 198 31 128 231 86 208 74 211 90 237 136 39 206 122 44 235 164 113 53 8 224 187 159 133 112 107 89 95 86 94 107 120 142 164 190 234 4 57 89 140 195 248 55 115 178 6 64 154 217 46 133 216 53 141 231 88 169 31 115 222 76 179 36 142 249 125 219 98 193 58 179 37 159 18 132 17 114 0 97 221 90 204 72 187 47 188 30 171 13 137 0 8 25 51 84 126 178 234 48 120 203 38 135 241 97 216 92 221 112 0 156 63 230 151 75 6 206 143 101 50 14 238 210 191 173 161 165 155 170 170 187 208 230 6 36 71 124 157 219 5 65 128 190 6 74 146 238 49 148 220 58 153 245 91 187 31 152 241 112 205 66 183 40 161 20 136 21 123 11 115 244 118 240 116 238 106 0 105 0 106 239 116 239 116 239 108 3 108 3 109 0 8 25 51 86 128 178 239 49 127 208 44 143 249 109 229 101 241 124 24 176 85 1 177 107 40 234 188 134 101 59 31 9 245 235 226 222 235 234 3 12 37 67 98 138 177 220 27 69 140 190 3 75 146 226 48 128 229 49 157 238 84 188 34 144 249 101 231 74 209 56 180 51 172 47 170 39 188 44 196 54 191 74 205 90 221 97 0 114 18 133 19 160 37 178 55 187 91 205 109 0 8 25 51 86 130 181 240 55 129 216 50 150 3 118 242 116 252 146 38 202 107 25 205 135 74 16 219 182 137 113 79 60 47 37 36 36 41 63 71 104 121 155 194 234 28 76 128 199 250 75 133 210 36 116 205 36 125 235 64 181 15 125 238 93 212 71 187 71 178 67 177 55 190 65 204 81 214 117 237 143 9 155 47 187 81 221 106 18 141 54 177 72 222 108 3 144 30 198 66 0 9 26 52 87 131 184 244 57 136 219 60 158 12 129 253 131 14 159 62 218 136 50 232 166 105 53 4 216 188 152 137 112 102 98 97 105 114 128 159 176 218 244 32 80 129 187 244 50 130 190 24 91 177 12 101 199 39 137 1 94 220 63 182 49 168 41 164 34 182 43 196 60 202 91 230 123 9 151 63 192 107 237 137 38 187 90 239 133 54 186 108 240 144 48 198 102 252 147 69 0 9 27 53 88 132 185 247 61 138 227 64 169 21 139 10 143 30 177 76 244 154 81 4 195 138 86 43 3 224 206 179 173 157 156 161 169 186 204 227 13 39 90 125 177 234 37 104 170 240 75 144 242 63 158 2 100 207 56 163 37 139 19 126 254 130 3 140 17 151 54 179 86 214 110 8 156 58 208 104 26 164 88 227 136 46 204 116 19 177 108 249 180 66 234 147 51 219 123 27 0 9 27 54 89 134 187 249 65 143 230 73 174 33 149 22 157 44 195 96 5 182 101 37 224 170 122 79 45 14 245 236 218 221 214 223 237 254 25 52 85 135 170 230 19 81 147 214 35 110 190 34 112 219 49 154 7 114 230 88 205 88 199 88 204 87 227 109 0 141 30 197 76 247 129 35 197 99 10 169 75 6 153 86 234 153 72 239 160 72 240 180 75 15 165 88 10 178 100 13 0 9 27 54 91 135 189 252 68 148 236 77 184 39 163 33 170 60 211 116 27 200 131 59 5 201 156 118 84 59 38 23 23 14 27 29 47 71 97 132 169 211 15 59 129 182 253 74 150 235 65 154 7 94 211 50 164 27 143 13 136 7 154 19 173 43 190 85 231 131 27 180 101 244 170 61 231 148 59 234 148 63 3 159 102 4 187 116 37 222 144 66 15 174 124 28 215 147 69 0 32 9 27 55 91 138 191 254 72 152 242 84 189 51 170 49 183 74 229 134 49 224 151 92 29 240 190 154 126 101 86 74 68 78 78 101 112 139 173 208 253 44 95 164 217 42 104 184 15 100 195 34 132 250 91 218 66 189 62 187 67 199 79 236 110 19 153 54 214 114 24 184 91 22 174 110 10 189 116 36 221 144 68 18 183 136 47 239 178 108 48 234 165 124 37 252 165 106 48 234 0 41 28 55 93 138 195 2 75 157 247 91 198 57 184 57 201 89 245 154 69 248 178 114 65 11 232 191 165 146 131 125 123 126 146 155 188 208 245 33 78 132 188 248 72 134 224 40 130 225 65 169 18 125 253 103 240 97 230 112 247 136 23 167 79 217 136 24 190 104 14 188 103 19 215 121 67 231 165 101 31 225 158 91 51 225 188 108 55 3 198 147 88 28 252 174 144 66 17 223 1 9 60 56 93 141 195 7 78 161 253 97 206 67 191 73 210 109 6 172 91 15 204 143 89 50 5 236 204 188 179 173 177 184 197 227 245 33 62 109 162 216 25 90 160 249 65 165 245 90 195 44 158 16 133 16 130 22 143 31 178 67 221 117 16 193 85 14 166 87 11 185 114 38 219 170 85 41 214 158 104 43 247 189 132 102 30 3 187 144 102 51 10 215 165 144 75 55 241 202 0 10 28 89 94 141 199 7 84 165 3 104 213 77 202 81 228 119 28 190 111 39 228 172 120 76 47 11 252 230 224 224 228 242 3 26 66 93 146 185 242 49 113 187 6 86 185 10 120 210 65 179 38 162 29 156 49 172 74 205 103 4 158 67 227 136 68 224 163 70 1 189 118 57 245 181 142 66 32 215 169 124 73 32 238 191 171 108 91 30 252 219 178 147 106 66 55 250 240 181 1 9 29 57 128 143 199 12 85 172 8 110 221 85 214 94 237 139 40 214 131 61 254 198 152 110 75 56 30 26 14 17 27 41 65 91 123 173 210 18 67 133 205 24 108 192 26 135 225 90 190 54 178 47 181 58 194 97 230 142 28 190 101 10 184 99 17 214 125 74 246 186 129 68 17 215 160 131 65 41 234 197 162 121 90 51 13 3 205 198 147 123 100 69 48 17 241 240 190 190 -250 10 28 58 96 177 202 13 91 174 16 116 228 94 223 107 252 150 62 228 157 83 23 226 180 144 112 87 78 62 68 65 78 98 122 156 192 234 39 86 159 217 38 120 204 43 137 236 100 200 75 184 58 192 71 215 102 248 161 49 226 121 38 214 133 62 242 170 122 43 2 183 133 86 35 249 202 157 138 82 68 15 243 218 187 166 137 109 109 66 69 27 13 0 234 223 202 181 190 150 